<?xml version="1.0" encoding="utf-8"?>
<!-- Generated by IcoMoon.io -->
<!DOCTYPE svg PUBLIC "-//W3C//DTD SVG 1.1//EN" "http://www.w3.org/Graphics/SVG/1.1/DTD/svg11.dtd">
<svg version="1.1" xmlns="http://www.w3.org/2000/svg" xmlns:xlink="http://www.w3.org/1999/xlink" width="16" height="16" viewBox="0 0 16 16">
	<path d="M2 14.5c0-0.828 0.672-1.5 1.5-1.5s1.5 0.672 1.5 1.5c0 0.828-0.672 1.5-1.5 1.5-0.828 0-1.5-0.672-1.5-1.5zM12 14.5c0-0.828 0.672-1.5 1.5-1.5s1.5 0.672 1.5 1.5c0 0.828-0.672 1.5-1.5 1.5-0.828 0-1.5-0.672-1.5-1.5zM15 8v-6h-13c0-1.105-0.895-2-2-2v1c0.551 0 1 0.449 1 1l0.751 6.438c-0.458 0.367-0.751 0.93-0.751 1.562 0 1.105 0.895 2 2 2h12v-1h-12c-0.552 0-1-0.448-1-1 0-0.003 0-0.007 0-0.010l13-1.99z" fill="#ffffff" />
</svg>
