<?xml version="1.0" encoding="utf-8"?>
<!-- Generated by IcoMoon.io -->
<!DOCTYPE svg PUBLIC "-//W3C//DTD SVG 1.1//EN" "http://www.w3.org/Graphics/SVG/1.1/DTD/svg11.dtd">
<svg version="1.1" xmlns="http://www.w3.org/2000/svg" xmlns:xlink="http://www.w3.org/1999/xlink" width="17" height="16" viewBox="0 0 17 16">
	<path d="M13.907 14.407c-0.192 0-0.384-0.073-0.53-0.22-0.293-0.293-0.293-0.768 0-1.061 1.369-1.369 2.123-3.19 2.123-5.127 0-1.937-0.754-3.757-2.123-5.127-0.293-0.293-0.293-0.768 0-1.061 0.293-0.293 0.768-0.293 1.061 0 1.653 1.653 2.563 3.85 2.563 6.187 0 2.337-0.91 4.534-2.563 6.187-0.146 0.146-0.338 0.22-0.53 0.22zM11.243 12.993c-0.192 0-0.384-0.073-0.53-0.22-0.293-0.293-0.293-0.768 0-1.061 2.047-2.047 2.047-5.378 0-7.425-0.293-0.293-0.293-0.768 0-1.061 0.293-0.293 0.768-0.293 1.061 0 1.275 1.275 1.977 2.97 1.977 4.773 0 1.803-0.702 3.498-1.977 4.773-0.146 0.146-0.338 0.22-0.53 0.22zM8.578 11.578c-0.192 0-0.384-0.073-0.53-0.22-0.293-0.293-0.293-0.768 0-1.061 1.267-1.267 1.267-3.329 0-4.596-0.293-0.293-0.293-0.768 0-1.061 0.293-0.293 0.768-0.293 1.061 0 1.852 1.852 1.852 4.866 0 6.718-0.146 0.146-0.338 0.22-0.53 0.22zM6.271 1.229c0.401-0.401 0.729-0.265 0.729 0.302v12.938c0 0.567-0.328 0.703-0.729 0.302l-3.771-3.771h-2.5v-6h2.5l3.771-3.771z" fill="#ffffff" />
</svg>
